<svg width="646" height="780" viewBox="0 0 646 780" fill="none" xmlns="http://www.w3.org/2000/svg">
<path d="M2.00032 1C2.00016 43 -2.06532 118.124 18.5002 230C43.5002 366 104 398 162 428.5C220 459 334.5 441 374.5 380C398.267 343.756 471.73 164.226 361 73C273 0.5 202 13.5 119 66C45.6432 112.4 27.5002 250 18.5002 317C9.50023 384 4.70022 415.5 11.0002 457.5C17.3002 499.5 44.0725 551.218 80.0002 576.5C120.5 605 260.559 593 293.5 558C333.5 515.5 346.519 472.524 387.5 441C433 406 537 396.5 609 464C661.323 513.053 639.5 703 640.5 780" stroke="#86BE7A" stroke-opacity="0.2" stroke-width="3" stroke-linecap="round" stroke-dasharray="11 11"/>
</svg>
