<svg width="51" height="154" viewBox="0 0 51 154" fill="none" xmlns="http://www.w3.org/2000/svg">
<path d="M4.89342 80.2574L6.37344 80.5014L4.89342 80.2574ZM3.86791 147.797C3.83682 146.969 3.14052 146.323 2.31268 146.354C1.48483 146.385 0.838935 147.081 0.870023 147.909L3.86791 147.797ZM0.558418 135.566C0.570174 136.394 1.25121 137.056 2.07955 137.045C2.9079 137.033 3.56987 136.352 3.55812 135.523L0.558418 135.566ZM3.51579 123.245C3.52214 122.416 2.85573 121.74 2.02733 121.733C1.19892 121.727 0.522227 122.393 0.515882 123.222L3.51579 123.245ZM0.76487 110.865C0.736998 111.693 1.38559 112.386 2.21355 112.414C3.04151 112.442 3.7353 111.794 3.76317 110.966L0.76487 110.865ZM4.37722 98.7133C4.43396 97.8868 3.80996 97.1708 2.98348 97.114C2.157 97.0573 1.441 97.6813 1.38426 98.5078L4.37722 98.7133ZM2.53673 86.164C2.43579 86.9862 3.02053 87.7346 3.84279 87.8356C4.66504 87.9365 5.41344 87.3518 5.51438 86.5295L2.53673 86.164ZM7.49343 75.0527C7.69011 74.2479 7.19718 73.4361 6.39244 73.2394C5.5877 73.0428 4.77589 73.5357 4.57921 74.3404L7.49343 75.0527ZM8.0073 63.3352C7.71714 64.1111 8.11096 64.9754 8.88691 65.2656C9.66287 65.5557 10.5271 65.1619 10.8173 64.3859L8.0073 63.3352ZM15.2241 54.0612C15.5806 53.3134 15.2634 52.4182 14.5157 52.0616C13.7679 51.7051 12.8726 52.0223 12.5161 52.77L15.2241 54.0612ZM17.8074 42.6058C17.4011 43.3278 17.6571 44.2424 18.3791 44.6487C19.1011 45.0549 20.0157 44.7989 20.4219 44.0769L17.8074 42.6058ZM26.2295 34.4099C26.6751 33.7115 26.4701 32.7841 25.7716 32.3386C25.0732 31.8931 24.1459 32.0981 23.7003 32.7965L26.2295 34.4099ZM30.0812 23.312C29.6027 23.9883 29.7631 24.9244 30.4394 25.4028C31.1157 25.8813 32.0518 25.7209 32.5303 25.0446L30.0812 23.312ZM39.258 15.9729C39.7662 15.3187 39.6478 14.3763 38.9935 13.8681C38.3393 13.36 37.3969 13.4784 36.8888 14.1326L39.258 15.9729ZM44.1052 5.27569C43.5661 5.90472 43.639 6.85166 44.2681 7.39075C44.8971 7.92983 45.8441 7.85691 46.3831 7.22788L44.1052 5.27569ZM4.09662 153.484C4.14032 153.603 4.15711 153.7 4.15788 153.704C4.16285 153.73 4.16519 153.748 4.1654 153.749C4.16597 153.753 4.16455 153.743 4.16142 153.711C4.15542 153.651 4.14729 153.553 4.13727 153.415C4.11744 153.141 4.09262 152.739 4.06432 152.217C4.0078 151.176 3.93844 149.675 3.86791 147.797L0.870023 147.909C0.941014 149.8 1.0111 151.318 1.06872 152.38C1.09748 152.91 1.12341 153.332 1.14509 153.631C1.15583 153.78 1.16615 153.907 1.17593 154.006C1.18069 154.054 1.18649 154.108 1.19357 154.159C1.19703 154.184 1.20245 154.221 1.21031 154.263C1.21397 154.282 1.23347 154.39 1.2797 154.516L4.09662 153.484ZM3.55812 135.523C3.50479 131.765 3.48234 127.613 3.51579 123.245L0.515882 123.222C0.482237 127.615 0.504817 131.789 0.558418 135.566L3.55812 135.523ZM3.76317 110.966C3.90066 106.881 4.09963 102.756 4.37722 98.7133L1.38426 98.5078C1.10389 102.592 0.903325 106.752 0.76487 110.865L3.76317 110.966ZM5.51438 86.5295C5.7702 84.4455 6.05563 82.4292 6.37344 80.5014L3.41339 80.0134C3.08797 81.9874 2.79685 84.045 2.53673 86.164L5.51438 86.5295ZM6.37344 80.5014C6.67008 78.702 7.04585 76.884 7.49343 75.0527L4.57921 74.3404C4.11491 76.2401 3.72337 78.1331 3.41339 80.0134L6.37344 80.5014ZM10.8173 64.3859C12.1076 60.9353 13.5931 57.4819 15.2241 54.0612L12.5161 52.77C10.8525 56.2592 9.33182 59.7931 8.0073 63.3352L10.8173 64.3859ZM20.4219 44.0769C22.2815 40.7719 24.2342 37.5378 26.2295 34.4099L23.7003 32.7965C21.6783 35.9663 19.6967 39.2479 17.8074 42.6058L20.4219 44.0769ZM32.5303 25.0446C34.8111 21.8205 37.0778 18.7798 39.258 15.9729L36.8888 14.1326C34.6829 16.9726 32.3894 20.0492 30.0812 23.312L32.5303 25.0446ZM46.3831 7.22788C47.721 5.66684 48.9711 4.25545 50.1074 3.01177L47.8926 0.988226C46.7334 2.25697 45.4622 3.69225 44.1052 5.27569L46.3831 7.22788Z" fill="white"/>
</svg>
