<svg width="149" height="150" viewBox="0 0 149 150" fill="none" xmlns="http://www.w3.org/2000/svg">
<g clip-path="url(#clip0_980_215)">
<path d="M39.9711 57.5957C38.0559 53.3587 38.7337 49.4367 39.3161 46.0626C39.9583 42.395 41.278 38.8739 43.2099 35.6732C48.9276 33.5426 55.0166 32.5393 61.1294 32.7205C72.2209 33.0833 80.3748 37.3916 85.5972 40.2279C87.8119 41.4297 92.5558 44.0367 97.0636 48.0858C109.351 59.1191 112.59 74.2964 113.586 81.3734C111.65 82.1516 109.713 82.9308 107.777 83.7111C104.123 85.1797 100.471 86.6483 96.8201 88.1169C96.284 86.8721 95.6465 85.5345 94.8853 84.1403L94.8869 84.1388C92.4281 79.5949 89.2066 75.4912 85.3582 72.0003C82.371 69.2966 71.8769 59.811 56.9473 60.3667C52.612 60.5444 48.349 61.5173 44.3782 63.2352C42.4882 61.7126 40.9802 59.7829 39.9711 57.5957Z" fill="#E6E6E6"/>
<path d="M94.885 84.1403C95.6462 85.5345 96.2837 86.8721 96.8199 88.1168C95.8023 86.2199 94.4923 85.2733 94.885 84.1403Z" fill="#E6E6E6"/>
<path d="M16.091 82.4643C13.8498 80.1167 12.4212 77.1332 12.0091 73.9403C11.5971 70.7473 12.2229 67.5084 13.797 64.6864C15.3711 61.8644 17.813 59.6037 20.7736 58.2276C23.7342 56.8514 27.0621 56.4302 30.2815 57.0241C33.5009 57.618 36.4471 59.1966 38.6989 61.5343C40.9508 63.872 42.3931 66.8492 42.8197 70.0403C43.2463 73.2313 42.6353 76.473 41.0741 79.3019C39.5129 82.1309 37.0814 84.4022 34.1271 85.7914C31.1508 87.1884 27.7992 87.6189 24.557 87.0208C21.3147 86.4227 18.3498 84.827 16.091 82.4643Z" fill="#E6E6E6"/>
<path d="M34.1269 85.7914C36.1986 84.816 38.025 83.4025 39.4754 81.6521C40.9257 79.9016 41.964 77.8576 42.5158 75.6664C46.4461 79.6305 50.3763 83.5957 54.3064 87.562C53.334 88.7829 52.3621 90.0044 51.3907 91.2264C62.0823 98.2246 65.8039 104.307 67.1381 108.724C67.5349 110.044 68.2364 112.92 70.7719 114.592C74.0517 116.753 78.4061 115.584 80.9507 114.903C82.9923 114.357 89.0429 112.639 93.4312 106.779C97.1033 101.873 99.8417 93.7523 96.8199 88.1169C100.472 86.6467 104.124 85.1781 107.777 83.7111C109.659 87.9981 110.6 92.6267 110.538 97.2947C110.477 100.827 109.661 113.833 98.5549 121.95C96.8849 123.169 84.6373 131.814 71.9368 126.136C62.8509 122.077 59.5717 113.386 58.9018 111.475C56.61 108.325 54.0109 105.049 51.0596 101.725C45.9093 95.9293 40.2425 90.5969 34.1269 85.7914Z" fill="#E6E6E6"/>
</g>
<defs>
<clipPath id="clip0_980_215">
<rect width="98.2529" height="112.501" fill="white" transform="translate(148.783 81.985) rotate(136.782)"/>
</clipPath>
</defs>
</svg>
