<svg width="167" height="182" viewBox="0 0 167 182" fill="none" xmlns="http://www.w3.org/2000/svg">
<g clip-path="url(#clip0_980_210)">
<path d="M119.788 131.825C122.797 138.201 122.909 142.794 123.006 146.746C123.102 151.037 122.427 154.78 121.014 157.793C115.24 157.432 108.816 155.449 102.109 151.956C89.9313 145.576 80.1015 135.78 73.789 129.409C71.1124 126.708 65.3716 120.882 59.5753 113.36C43.7769 92.8606 36.9483 71.9565 34.3253 62.4837C36.2686 62.5344 38.2118 62.5838 40.1547 62.6319C43.8209 62.7269 47.4859 62.8214 51.1498 62.9152C52.0048 64.774 52.9906 66.8042 54.1237 68.9721L54.1222 68.9731C57.7909 76.0264 62.1958 82.9309 67.1516 89.3958C70.997 94.4063 84.5036 111.993 100.668 119.261C105.359 121.351 109.798 122.398 113.756 122.348C116.148 125.28 118.212 128.523 119.788 131.825Z" fill="white"/>
<path d="M44.5219 63.5275C43.9037 61.8639 43.4119 60.2818 43.0167 58.8181C43.838 61.0788 45.1237 62.3274 44.5219 63.5275Z" fill="white"/>
<path d="M130.299 77.2155C132.388 80.1607 133.492 83.6906 133.454 87.3007C133.416 90.9107 132.238 94.4162 130.089 97.316C127.939 100.216 124.927 102.361 121.484 103.446C118.041 104.531 114.344 104.5 110.919 103.357C107.495 102.214 104.519 100.017 102.417 97.0815C100.315 94.1457 99.1954 90.6208 99.217 87.0106C99.2387 83.4004 100.401 79.8897 102.538 76.9803C104.674 74.0709 107.676 71.9117 111.114 70.8113C114.577 69.7056 118.303 69.7301 121.751 70.8814C125.2 72.0326 128.194 74.2509 130.299 77.2155Z" fill="white"/>
<path d="M120.86 84.4364C118.397 85.0456 116.204 86.2715 114.439 88.0262C112.674 89.7809 111.381 92.021 110.651 94.586C106.199 88.5082 101.747 82.4291 97.295 76.3486C98.4802 75.1133 99.6649 73.8772 100.849 72.6402C88.5938 60.8161 84.4666 52.1632 83.072 46.2802C82.6575 44.5216 81.9453 40.7399 79.0394 37.9193C75.2806 34.2755 70.1366 34.4591 67.1307 34.5643C64.719 34.6481 57.5676 35.0214 52.2056 41.0315C47.7187 46.0644 44.203 55.3679 47.5276 63.26C43.1951 64.0241 38.8621 64.786 34.5286 65.5458C32.4873 59.6636 31.5613 53.631 31.811 47.8417C32.0166 43.4647 33.4666 27.5222 46.7819 20.6636C48.784 19.6344 63.4561 12.4509 78.1141 23.2182C88.6004 30.9187 92.1103 42.687 92.8223 45.2589C95.3865 49.846 98.3058 54.6799 101.636 59.6757C107.447 68.3881 113.881 76.6746 120.86 84.4364Z" fill="white"/>
</g>
<defs>
<clipPath id="clip0_980_210">
<rect width="91.5874" height="157.464" fill="white" transform="translate(0.77832 53.0446) rotate(-35.3921)"/>
</clipPath>
</defs>
</svg>
