<svg width="208" height="46" viewBox="0 0 208 46" fill="none" xmlns="http://www.w3.org/2000/svg">
<path d="M83.7617 34.7812V39H69.4648V34.7812H83.7617ZM71.0859 10.5625V39H65.7148V10.5625H71.0859ZM90.2336 17.8672V39H85.0578V17.8672H90.2336ZM84.7062 12.3398C84.7062 11.5716 84.9667 10.9336 85.4875 10.4258C86.0214 9.91797 86.7375 9.66406 87.6359 9.66406C88.5344 9.66406 89.244 9.91797 89.7648 10.4258C90.2987 10.9336 90.5656 11.5716 90.5656 12.3398C90.5656 13.0951 90.2987 13.7266 89.7648 14.2344C89.244 14.7422 88.5344 14.9961 87.6359 14.9961C86.7375 14.9961 86.0214 14.7422 85.4875 14.2344C84.9667 13.7266 84.7062 13.0951 84.7062 12.3398ZM104.577 33.2188C104.577 32.776 104.459 32.3789 104.225 32.0273C103.991 31.6758 103.548 31.3568 102.897 31.0703C102.259 30.7708 101.321 30.4909 100.084 30.2305C98.9906 29.9961 97.9815 29.7031 97.057 29.3516C96.1326 29 95.3383 28.5768 94.6742 28.082C94.0102 27.5742 93.4893 26.9818 93.1117 26.3047C92.7471 25.6146 92.5648 24.8203 92.5648 23.9219C92.5648 23.0495 92.7536 22.2292 93.1313 21.4609C93.5089 20.6797 94.0557 19.9961 94.7719 19.4102C95.488 18.8112 96.3604 18.3424 97.3891 18.0039C98.4177 17.6523 99.5766 17.4766 100.866 17.4766C102.663 17.4766 104.205 17.7695 105.495 18.3555C106.797 18.9414 107.793 19.7487 108.483 20.7773C109.173 21.793 109.518 22.9388 109.518 24.2148H104.362C104.362 23.6549 104.232 23.1471 103.971 22.6914C103.724 22.2357 103.34 21.8711 102.819 21.5977C102.298 21.3112 101.64 21.168 100.846 21.168C100.13 21.168 99.5245 21.2852 99.0297 21.5195C98.5479 21.7539 98.1833 22.0599 97.9359 22.4375C97.6885 22.8151 97.5648 23.2318 97.5648 23.6875C97.5648 24.026 97.6299 24.332 97.7602 24.6055C97.9034 24.8659 98.1313 25.1068 98.4438 25.3281C98.7563 25.5495 99.1794 25.7513 99.7133 25.9336C100.26 26.1159 100.931 26.2917 101.725 26.4609C103.301 26.7734 104.674 27.1901 105.846 27.7109C107.031 28.2188 107.955 28.8958 108.62 29.7422C109.284 30.5885 109.616 31.6693 109.616 32.9844C109.616 33.9219 109.414 34.7812 109.01 35.5625C108.607 36.3307 108.021 37.0013 107.252 37.5742C106.484 38.1471 105.566 38.5964 104.498 38.9219C103.431 39.2344 102.226 39.3906 100.885 39.3906C98.9451 39.3906 97.3044 39.0456 95.9633 38.3555C94.6221 37.6523 93.6065 36.7669 92.9164 35.6992C92.2263 34.6185 91.8813 33.4987 91.8813 32.3398H96.8227C96.8617 33.1602 97.0831 33.8177 97.4867 34.3125C97.8904 34.8073 98.3982 35.1654 99.0102 35.3867C99.6352 35.5951 100.293 35.6992 100.983 35.6992C101.764 35.6992 102.422 35.5951 102.955 35.3867C103.489 35.1654 103.893 34.8724 104.166 34.5078C104.44 34.1302 104.577 33.7005 104.577 33.2188ZM121.341 17.8672V21.5781H109.232V17.8672H121.341ZM112.474 12.6719H117.65V32.9062C117.65 33.5312 117.735 34.013 117.904 34.3516C118.073 34.6901 118.327 34.918 118.666 35.0352C119.004 35.1523 119.408 35.2109 119.877 35.2109C120.215 35.2109 120.528 35.1914 120.814 35.1523C121.101 35.1133 121.341 35.0742 121.537 35.0352L121.556 38.9023C121.127 39.0456 120.638 39.1628 120.091 39.2539C119.558 39.3451 118.952 39.3906 118.275 39.3906C117.116 39.3906 116.101 39.1953 115.228 38.8047C114.356 38.401 113.679 37.7565 113.197 36.8711C112.715 35.9727 112.474 34.7878 112.474 33.3164V12.6719ZM132.071 39.3906C130.47 39.3906 129.031 39.1302 127.755 38.6094C126.479 38.0885 125.391 37.3659 124.493 36.4414C123.608 35.5039 122.924 34.4167 122.442 33.1797C121.973 31.9297 121.739 30.5885 121.739 29.1562V28.375C121.739 26.7474 121.973 25.2695 122.442 23.9414C122.911 22.6003 123.575 21.4479 124.434 20.4844C125.294 19.5208 126.322 18.7786 127.52 18.2578C128.718 17.737 130.04 17.4766 131.485 17.4766C132.983 17.4766 134.304 17.7305 135.45 18.2383C136.596 18.7331 137.553 19.4362 138.321 20.3477C139.089 21.2591 139.669 22.3529 140.059 23.6289C140.45 24.8919 140.645 26.2917 140.645 27.8281V29.9961H124.083V26.4414H135.567V26.0508C135.541 25.2305 135.385 24.4818 135.098 23.8047C134.812 23.1146 134.369 22.5677 133.77 22.1641C133.171 21.7474 132.397 21.5391 131.446 21.5391C130.678 21.5391 130.007 21.7083 129.434 22.0469C128.874 22.3724 128.406 22.8411 128.028 23.4531C127.664 24.0521 127.39 24.7682 127.208 25.6016C127.026 26.4349 126.934 27.3594 126.934 28.375V29.1562C126.934 30.0417 127.052 30.862 127.286 31.6172C127.533 32.3724 127.891 33.0299 128.36 33.5898C128.842 34.1367 129.415 34.5664 130.079 34.8789C130.756 35.1784 131.524 35.3281 132.384 35.3281C133.464 35.3281 134.441 35.1198 135.313 34.7031C136.199 34.2734 136.967 33.6419 137.618 32.8086L140.216 35.5039C139.773 36.1549 139.174 36.7799 138.419 37.3789C137.677 37.9779 136.778 38.4661 135.723 38.8438C134.669 39.2083 133.451 39.3906 132.071 39.3906ZM146.961 22.3789V39H141.805V17.8672H146.648L146.961 22.3789ZM146.141 27.6719H144.617C144.63 26.1354 144.839 24.7422 145.242 23.4922C145.646 22.2422 146.212 21.168 146.941 20.2695C147.684 19.3711 148.562 18.681 149.578 18.1992C150.594 17.7174 151.727 17.4766 152.977 17.4766C153.992 17.4766 154.91 17.6198 155.73 17.9062C156.551 18.1927 157.254 18.6484 157.84 19.2734C158.439 19.8984 158.895 20.7188 159.207 21.7344C159.533 22.737 159.695 23.974 159.695 25.4453V39H154.5V25.4062C154.5 24.4427 154.357 23.681 154.07 23.1211C153.797 22.5612 153.393 22.1641 152.859 21.9297C152.339 21.6953 151.694 21.5781 150.926 21.5781C150.132 21.5781 149.435 21.7409 148.836 22.0664C148.25 22.3789 147.755 22.8151 147.352 23.375C146.961 23.9349 146.661 24.5794 146.453 25.3086C146.245 26.0378 146.141 26.8255 146.141 27.6719ZM171.538 39.3906C169.937 39.3906 168.498 39.1302 167.222 38.6094C165.946 38.0885 164.859 37.3659 163.96 36.4414C163.075 35.5039 162.391 34.4167 161.909 33.1797C161.441 31.9297 161.206 30.5885 161.206 29.1562V28.375C161.206 26.7474 161.441 25.2695 161.909 23.9414C162.378 22.6003 163.042 21.4479 163.902 20.4844C164.761 19.5208 165.79 18.7786 166.988 18.2578C168.185 17.737 169.507 17.4766 170.952 17.4766C172.45 17.4766 173.771 17.7305 174.917 18.2383C176.063 18.7331 177.02 19.4362 177.788 20.3477C178.557 21.2591 179.136 22.3529 179.527 23.6289C179.917 24.8919 180.113 26.2917 180.113 27.8281V29.9961H163.55V26.4414H175.034V26.0508C175.008 25.2305 174.852 24.4818 174.566 23.8047C174.279 23.1146 173.836 22.5677 173.238 22.1641C172.639 21.7474 171.864 21.5391 170.913 21.5391C170.145 21.5391 169.474 21.7083 168.902 22.0469C168.342 22.3724 167.873 22.8411 167.495 23.4531C167.131 24.0521 166.857 24.7682 166.675 25.6016C166.493 26.4349 166.402 27.3594 166.402 28.375V29.1562C166.402 30.0417 166.519 30.862 166.753 31.6172C167.001 32.3724 167.359 33.0299 167.827 33.5898C168.309 34.1367 168.882 34.5664 169.546 34.8789C170.223 35.1784 170.991 35.3281 171.851 35.3281C172.932 35.3281 173.908 35.1198 174.78 34.7031C175.666 34.2734 176.434 33.6419 177.085 32.8086L179.683 35.5039C179.24 36.1549 178.641 36.7799 177.886 37.3789C177.144 37.9779 176.245 38.4661 175.191 38.8438C174.136 39.2083 172.918 39.3906 171.538 39.3906ZM186.526 22.1836V39H181.37V17.8672H186.252L186.526 22.1836ZM192.952 17.7305L192.873 22.5352C192.587 22.4831 192.261 22.444 191.897 22.418C191.545 22.3919 191.213 22.3789 190.901 22.3789C190.107 22.3789 189.41 22.4896 188.811 22.7109C188.212 22.9193 187.711 23.2253 187.307 23.6289C186.916 24.0326 186.617 24.5273 186.409 25.1133C186.2 25.6862 186.083 26.3372 186.057 27.0664L184.944 26.9297C184.944 25.5885 185.08 24.3451 185.354 23.1992C185.627 22.0534 186.024 21.0508 186.545 20.1914C187.066 19.332 187.717 18.668 188.498 18.1992C189.293 17.7174 190.204 17.4766 191.233 17.4766C191.519 17.4766 191.825 17.5026 192.151 17.5547C192.489 17.5938 192.756 17.6523 192.952 17.7305ZM198.74 22.1836V39H193.584V17.8672H198.466L198.74 22.1836ZM205.166 17.7305L205.087 22.5352C204.801 22.4831 204.476 22.444 204.111 22.418C203.759 22.3919 203.427 22.3789 203.115 22.3789C202.321 22.3789 201.624 22.4896 201.025 22.7109C200.426 22.9193 199.925 23.2253 199.521 23.6289C199.13 24.0326 198.831 24.5273 198.623 25.1133C198.414 25.6862 198.297 26.3372 198.271 27.0664L197.158 26.9297C197.158 25.5885 197.295 24.3451 197.568 23.1992C197.841 22.0534 198.239 21.0508 198.759 20.1914C199.28 19.332 199.931 18.668 200.712 18.1992C201.507 17.7174 202.418 17.4766 203.447 17.4766C203.733 17.4766 204.039 17.5026 204.365 17.5547C204.703 17.5938 204.97 17.6523 205.166 17.7305Z" fill="#1E0F10"/>
<path d="M47.5 26C47.5 35.1127 40.1127 42.5 31 42.5C21.8873 42.5 14.5 35.1127 14.5 26C14.5 16.8873 21.8873 9.5 31 9.5C40.1127 9.5 47.5 16.8873 47.5 26Z" stroke="#1E0F10" stroke-width="7" stroke-miterlimit="10"/>
<path d="M5.52294 19.8752C5.07109 19.9966 2.1815 20.8244 0.743177 23.7453C0.174565 24.9067 -0.0750798 26.1971 0.0195878 27.4855C0.114255 28.7739 0.549863 30.0145 1.28219 31.0813C3.54241 34.3574 7.44954 34.2536 7.68775 34.243C7.82248 30.2549 7.95721 26.2668 8.09194 22.2786C8.43357 20.0762 9.11527 17.9396 10.1129 15.9445C11.6058 12.9949 13.747 10.4176 16.3778 8.40386C19.5374 6.02516 23.2623 4.50109 27.1897 3.98004C28.9371 3.7109 34.5822 2.91268 40.5279 5.48815C50.7535 9.91756 53.6896 20.783 54.0681 22.2786C54.0383 26.2504 54.0086 30.2222 53.9788 34.194C54.2347 34.1841 58.1608 33.9641 60.0966 30.597C61.7076 27.795 60.7081 24.9564 60.5351 24.4905C59.8992 22.826 58.7007 21.4337 57.1454 20.5528C56.5421 18.4647 55.7136 16.4477 54.6744 14.5369C53.0412 11.5062 50.8866 8.78386 48.3085 6.49357C44.7156 3.31797 40.3086 1.19509 35.5766 0.360544C27.6265 -0.999411 21.4972 1.86079 19.6112 2.77354C15.4826 4.76756 11.9347 7.77857 9.30449 11.5206C7.55658 14.0607 6.27617 16.8895 5.52294 19.8752Z" fill="#86BE7A"/>
</svg>
